<?xml version="1.0" encoding="utf-8"?>
<!-- Generator: Adobe Illustrator 26.0.1, SVG Export Plug-In . SVG Version: 6.00 Build 0)  -->
<svg version="1.1" id="Calque_1" xmlns="http://www.w3.org/2000/svg" xmlns:xlink="http://www.w3.org/1999/xlink" x="0px" y="0px"
	 viewBox="0 0 1366 768" style="enable-background:new 0 0 1366 768;" xml:space="preserve">
<style type="text/css">
	.st0{fill:#87AAAA;}
	.st1{fill:#FFFFFF;}
	.st2{fill:#FABB51;}
	.st3{fill:#C8E3D4;}
	.st4{fill:#C8E3D9;}
	.st5{fill:#F4F1E4;}
	.st6{fill:#F6EABA;}
	.st7{fill:#F6D7A7;}
	.st8{fill:url(#SVGID_1_);}
	.st9{fill:url(#SVGID_00000034787292732635415070000012595206318674823103_);}
	.st10{fill:url(#SVGID_00000119810145696184371010000018074795129799692687_);}
	.st11{fill:url(#SVGID_00000039120198823275755330000001995295435648814984_);}
	.st12{fill:url(#SVGID_00000152247013043656358970000003580033654712102579_);}
	.st13{fill:url(#SVGID_00000167386417170504079200000006233487736549905568_);}
	.st14{fill:url(#SVGID_00000118394845255958109000000014492671389107646851_);}
	.st15{fill:url(#SVGID_00000042731778023622509250000005918965526076620985_);}
	.st16{fill:url(#SVGID_00000121976001834309190660000004708733761919646624_);}
</style>
<g>
	<circle class="st0" cx="514.3" cy="34.5" r="13.5"/>
</g>
<g>
	<ellipse class="st1" cx="514.7" cy="128" rx="90.3" ry="84.9"/>
	<path class="st2" d="M514.7,48.1c47,0,85.3,35.8,85.3,79.9s-38.3,79.9-85.3,79.9S429.4,172,429.4,128S467.7,48.1,514.7,48.1
		 M514.7,38.1c-52.6,0-95.3,40.2-95.3,89.9c0,49.6,42.7,89.9,95.3,89.9S610,177.6,610,128C610,78.3,567.3,38.1,514.7,38.1
		L514.7,38.1z"/>
</g>
<path class="st0" d="M443.9,61.9L443.9,61.9c-1.6,0-2.8-1.4-2.4-2.7c2.6-7.7,12.8-25,17.5-25h110.4c5.5,0,13.9,18.9,13.9,23.7l0,0
	c0,4.8-8.4,4.1-13.9,4.1L444,62.1"/>
<g>
	<path class="st3" d="M581.9,220.8H446.7c-4.9,0-8.9-4-8.9-8.9V203c0-4.9,4-8.9,8.9-8.9h135.2c4.9,0,8.9,4,8.9,8.9v8.8
		C590.8,216.8,586.8,220.8,581.9,220.8z"/>
</g>
<g>
	<polygon class="st0" points="594,336 431.4,336 447.5,220.7 575.5,220.7 	"/>
</g>
<g>
	<path class="st4" d="M537.8,345.3h-50.2c-2.6,0-4.6-2.1-4.6-4.6V336c0-2.6,2.1-4.6,4.6-4.6h50.2c2.6,0,4.6,2.1,4.6,4.6v4.6
		C542.4,343.2,540.3,345.3,537.8,345.3z"/>
</g>
<g>
	<path class="st3" d="M596.4,338.5H427.2c-2.4,0-4.4-2-4.4-4.4v-8c0-0.4,0.3-0.8,0.8-0.8h172.8c2.4,0,4.4,2,4.4,4.4v4.4
		C600.8,336.5,598.8,338.5,596.4,338.5z"/>
</g>
<g>
	<polygon class="st5" points="533.9,331.7 491.2,331.7 498.3,286.9 527.3,286.9 	"/>
</g>
<g>
	<circle class="st6" cx="512.5" cy="270" r="20.1"/>
</g>
<g>
	<path class="st5" d="M534.4,273.6h-44.2c-1.5,0-3-1.5-3-3.4l0,0c0-1.9,1.5-3.4,3.4-3.4h44.2c1.9,0,3.4,1.5,3.4,3.4l0,0
		C538.2,272.1,536.7,273.6,534.4,273.6z"/>
</g>
<g>
	<polygon class="st7" points="525.9,331.7 498.1,331.7 502.7,302.6 521.6,302.6 	"/>
</g>
<g>
	
		<linearGradient id="SVGID_1_" gradientUnits="userSpaceOnUse" x1="1193.2142" y1="-338.1028" x2="1222.4027" y2="-338.1028" gradientTransform="matrix(0.1986 -0.9801 0.9801 0.1986 583.7693 1355.9229)">
		<stop  offset="0" style="stop-color:#FFFFFF"/>
		<stop  offset="0.4488" style="stop-color:#87AAAA"/>
		<stop  offset="1" style="stop-color:#C8E3D9"/>
	</linearGradient>
	<circle class="st8" cx="492.3" cy="105" r="14.6"/>
</g>
<g>
	
		<linearGradient id="SVGID_00000080181972790138511060000011408048282810579863_" gradientUnits="userSpaceOnUse" x1="1148.7004" y1="-353.4215" x2="1177.8888" y2="-353.4215" gradientTransform="matrix(0.1986 -0.9801 0.9801 0.1986 583.7693 1355.9229)">
		<stop  offset="0" style="stop-color:#FFFFFF"/>
		<stop  offset="0.4488" style="stop-color:#87AAAA"/>
		<stop  offset="1" style="stop-color:#C8E3D9"/>
	</linearGradient>
	<circle style="fill:url(#SVGID_00000080181972790138511060000011408048282810579863_);" cx="468.4" cy="145.6" r="14.6"/>
</g>
<g>
	
		<linearGradient id="SVGID_00000155121427341674018310000016212216648123340956_" gradientUnits="userSpaceOnUse" x1="468.3655" y1="199.8064" x2="474.1622" y2="171.1994" gradientTransform="matrix(0.9783 0.2073 -0.2073 0.9783 91.7713 -133.5629)">
		<stop  offset="8.443411e-02" style="stop-color:#87AAAA"/>
		<stop  offset="0.6269" style="stop-color:#F6EABA"/>
		<stop  offset="1" style="stop-color:#C8E3D9"/>
	</linearGradient>
	<circle style="fill:url(#SVGID_00000155121427341674018310000016212216648123340956_);" cx="514.3" cy="145.6" r="14.6"/>
</g>
<g>
	
		<linearGradient id="SVGID_00000083051813694677696960000006291907898513413301_" gradientUnits="userSpaceOnUse" x1="1167.1373" y1="-262.3515" x2="1196.3258" y2="-262.3515" gradientTransform="matrix(0.1986 -0.9801 0.9801 0.1986 583.7693 1355.9229)">
		<stop  offset="0" style="stop-color:#FFFFFF"/>
		<stop  offset="0.4488" style="stop-color:#87AAAA"/>
		<stop  offset="1" style="stop-color:#C8E3D9"/>
	</linearGradient>
	<circle style="fill:url(#SVGID_00000083051813694677696960000006291907898513413301_);" cx="561.3" cy="145.6" r="14.6"/>
</g>
<g>
	
		<linearGradient id="SVGID_00000147198863452275542590000009196195276215517573_" gradientUnits="userSpaceOnUse" x1="481.6675" y1="183.4581" x2="506.5475" y2="168.1952">
		<stop  offset="0" style="stop-color:#FFFFFF"/>
		<stop  offset="0.4488" style="stop-color:#F6EABA"/>
		<stop  offset="0.7767" style="stop-color:#F4F1E4"/>
	</linearGradient>
	<circle style="fill:url(#SVGID_00000147198863452275542590000009196195276215517573_);" cx="492.3" cy="177" r="14.6"/>
</g>
<g>
	
		<linearGradient id="SVGID_00000031204900815573210250000006999461535890809492_" gradientUnits="userSpaceOnUse" x1="747.0121" y1="0.3641" x2="771.8921" y2="-14.8988" gradientTransform="matrix(0.5526 -0.8334 0.8334 0.5526 124.655 738.4556)">
		<stop  offset="0" style="stop-color:#FFFFFF"/>
		<stop  offset="0.4488" style="stop-color:#F6EABA"/>
		<stop  offset="0.7767" style="stop-color:#F4F1E4"/>
	</linearGradient>
	<circle style="fill:url(#SVGID_00000031204900815573210250000006999461535890809492_);" cx="538.2" cy="103.6" r="14.6"/>
</g>
<g>
	
		<linearGradient id="SVGID_00000039848391341454586820000010092469616025816500_" gradientUnits="userSpaceOnUse" x1="329.8523" y1="217.6657" x2="354.7323" y2="202.4028" gradientTransform="matrix(0.5314 0.8471 -0.8471 0.5314 447.9422 -295.5705)">
		<stop  offset="0" style="stop-color:#FFFFFF"/>
		<stop  offset="0.4488" style="stop-color:#F6EABA"/>
		<stop  offset="0.7767" style="stop-color:#F4F1E4"/>
	</linearGradient>
	<circle style="fill:url(#SVGID_00000039848391341454586820000010092469616025816500_);" cx="450" cy="105" r="14.6"/>
</g>
<g>
	
		<linearGradient id="SVGID_00000178183269453761147800000006295791579748819375_" gradientUnits="userSpaceOnUse" x1="555.8528" y1="395.4686" x2="561.6495" y2="366.8616" gradientTransform="matrix(0.5314 0.8471 -0.8471 0.5314 605.4455 -572.2441)">
		<stop  offset="8.443411e-02" style="stop-color:#87AAAA"/>
		<stop  offset="0.6269" style="stop-color:#F6EABA"/>
		<stop  offset="1" style="stop-color:#C8E3D9"/>
	</linearGradient>
	<circle style="fill:url(#SVGID_00000178183269453761147800000006295791579748819375_);" cx="579.5" cy="103.6" r="14.6"/>
</g>
<g>
	
		<linearGradient id="SVGID_00000161615407012618312820000012316977777402871450_" gradientUnits="userSpaceOnUse" x1="828.8089" y1="104.8223" x2="834.6056" y2="76.2152" gradientTransform="matrix(0.6548 -0.7558 0.7558 0.6548 -74.8087 741.2932)">
		<stop  offset="8.443411e-02" style="stop-color:#87AAAA"/>
		<stop  offset="0.6269" style="stop-color:#F6EABA"/>
		<stop  offset="1" style="stop-color:#C8E3D9"/>
	</linearGradient>
	<circle style="fill:url(#SVGID_00000161615407012618312820000012316977777402871450_);" cx="538.2" cy="172" r="14.6"/>
</g>
</svg>
